<?xml version="1.0" encoding="utf-8"?>
<!-- Generator: Adobe Illustrator 27.8.1, SVG Export Plug-In . SVG Version: 6.00 Build 0)  -->
<svg version="1.1" id="Layer_2_00000140698438748087342210000012485041929318826411_"
	 xmlns="http://www.w3.org/2000/svg" xmlns:xlink="http://www.w3.org/1999/xlink" x="0px" y="0px" viewBox="0 0 339.6 37.2"
	 style="enable-background:new 0 0 339.6 37.2;" xml:space="preserve">
<style type="text/css">
	.st0{fill:#FFFFFF;}
</style>
<g>
	<g>
		<path class="st0" d="M10,21.1v9.8H4.2V6.3H15c2,0,3.6,0.2,4.8,0.7s2.2,1.3,3,2.5c0.8,1.2,1.2,2.6,1.2,4.1c0,3-1.4,5.1-4.3,6.4
			l4.5,10.9h-6.4l-3.8-9.8H10z M10,10.7v6.3h3.5c1.2,0,2-0.1,2.5-0.2c0.5-0.2,1-0.5,1.4-1.1c0.4-0.6,0.6-1.2,0.6-1.9
			c0-0.7-0.2-1.3-0.6-1.8c-0.4-0.5-0.9-0.9-1.3-1c-0.5-0.1-1.4-0.2-2.7-0.2H10z"/>
		<path class="st0" d="M43.9,22.7H32.2c0,0.3,0,0.6,0,0.8c0,1.3,0.3,2.3,1,2.9c0.7,0.7,1.5,1,2.5,1c1.8,0,2.9-1,3.2-2.9l4.9,0.4
			c-1.4,4.2-4.1,6.3-8.3,6.3c-1.8,0-3.4-0.4-4.6-1.1c-1.3-0.7-2.3-1.8-3.1-3.2c-0.8-1.4-1.2-3.1-1.2-5c0-2.9,0.8-5.2,2.5-7
			c1.7-1.8,3.8-2.7,6.4-2.7c2.3,0,4.4,0.8,6,2.5C43.1,16.4,43.9,19.1,43.9,22.7z M32.2,19.6h6.5c-0.2-2.5-1.2-3.8-3.1-3.8
			C33.5,15.8,32.4,17.1,32.2,19.6z"/>
		<path class="st0" d="M63.2,30.9H58c-0.2-0.7-0.3-1.7-0.3-2.8c-0.9,1.3-1.8,2.2-2.7,2.6c-0.9,0.4-1.9,0.6-3.1,0.6
			c-1.7,0-3.1-0.5-4.1-1.4c-1-0.9-1.6-2.2-1.6-3.7c0-1.1,0.3-2.2,0.9-3.2c0.6-1,1.6-1.7,3-2.3s3.8-1,7.4-1.2v-1
			c0-1.8-0.9-2.7-2.6-2.7c-1.9,0-2.9,0.9-3.1,2.7l-5-0.5c0.3-2.1,1.3-3.5,2.9-4.4c1.6-0.9,3.5-1.3,5.6-1.3c1.2,0,2.4,0.1,3.5,0.4
			c1.1,0.3,1.9,0.7,2.6,1.3c0.6,0.6,1,1.2,1.2,1.8c0.2,0.6,0.3,1.8,0.3,3.4v8.3C62.9,29.1,63,30.2,63.2,30.9z M57.5,22.2
			c-3.7,0.4-5.6,1.5-5.6,3.4c0,0.6,0.2,1.2,0.6,1.6c0.4,0.5,1,0.7,1.7,0.7c0.9,0,1.7-0.4,2.4-1.2s1-1.8,1-2.9V22.2z"/>
		<path class="st0" d="M73.4,26h9.8v4.9H67.5V6.3h5.8V26z"/>
		<path class="st0" d="M112.9,11h-11.7v5h9.2v4.6h-9.2V26h11.7v4.9H95.4V6.3h17.6V11z"/>
		<path class="st0" d="M132,30.9h-5.2c-0.2-0.7-0.3-1.7-0.3-2.8c-0.9,1.3-1.8,2.2-2.7,2.6c-0.9,0.4-1.9,0.6-3.1,0.6
			c-1.7,0-3.1-0.5-4.1-1.4c-1-0.9-1.6-2.2-1.6-3.7c0-1.1,0.3-2.2,0.9-3.2c0.6-1,1.6-1.7,3-2.3s3.8-1,7.4-1.2v-1
			c0-1.8-0.9-2.7-2.6-2.7c-1.9,0-2.9,0.9-3.1,2.7l-5-0.5c0.3-2.1,1.3-3.5,2.9-4.4c1.6-0.9,3.5-1.3,5.6-1.3c1.2,0,2.4,0.1,3.5,0.4
			c1.1,0.3,1.9,0.7,2.6,1.3c0.6,0.6,1,1.2,1.2,1.8c0.2,0.6,0.3,1.8,0.3,3.4v8.3C131.7,29.1,131.8,30.2,132,30.9z M126.3,22.2
			c-3.7,0.4-5.6,1.5-5.6,3.4c0,0.6,0.2,1.2,0.6,1.6c0.4,0.5,1,0.7,1.7,0.7c0.9,0,1.7-0.4,2.4-1.2s1-1.8,1-2.9V22.2z"/>
		<path class="st0" d="M149.8,17.1l-3.9,1c-0.5-1.6-1.6-2.5-3.6-2.5c-1.8,0-2.7,0.5-2.7,1.6c0,0.4,0.2,0.8,0.5,1
			c0.3,0.3,1.2,0.5,2.6,0.7c2.1,0.3,3.6,0.6,4.6,1c1,0.4,1.8,1,2.4,1.8s0.9,1.9,0.9,3.2c0,1.9-0.7,3.4-2.1,4.6
			c-1.4,1.2-3.4,1.8-6,1.8c-4.6,0-7.4-1.8-8.3-5.4l4.5-0.7c0.4,1.6,1.7,2.5,4,2.5c0.9,0,1.6-0.2,2.3-0.5c0.6-0.3,0.9-0.8,0.9-1.3
			c0-0.8-0.7-1.3-2-1.5c-3.7-0.5-6.1-1.2-7.3-2.1c-1.2-1-1.7-2.3-1.7-4c0-1.7,0.7-3.2,2-4.3c1.3-1.1,3.2-1.7,5.7-1.7
			c1.9,0,3.5,0.4,4.6,1.1C148.3,14.2,149.2,15.4,149.8,17.1z"/>
		<path class="st0" d="M160,16.9v7.7c0,1,0.1,1.6,0.4,1.9c0.3,0.3,1,0.5,2,0.5c0.5,0,1.1,0,1.7-0.1v4c-1.6,0.3-2.7,0.4-3.4,0.4
			c-2.2,0-3.8-0.4-4.8-1.3s-1.4-2.4-1.4-4.7v-8.5h-2.9v-4.2h3.2l0.4-5.4l4.6-0.4v5.7h3.9v4.2H160z"/>
		<path class="st0" d="M183.1,30.9h-5.2c-0.2-0.7-0.3-1.7-0.3-2.8c-0.9,1.3-1.8,2.2-2.7,2.6c-0.9,0.4-1.9,0.6-3.1,0.6
			c-1.7,0-3.1-0.5-4.1-1.4c-1-0.9-1.6-2.2-1.6-3.7c0-1.1,0.3-2.2,0.9-3.2c0.6-1,1.6-1.7,3-2.3c1.4-0.5,3.8-1,7.4-1.2v-1
			c0-1.8-0.9-2.7-2.6-2.7c-1.9,0-2.9,0.9-3.1,2.7l-5-0.5c0.3-2.1,1.3-3.5,2.9-4.4c1.6-0.9,3.5-1.3,5.6-1.3c1.2,0,2.4,0.1,3.5,0.4
			c1.1,0.3,1.9,0.7,2.6,1.3c0.6,0.6,1,1.2,1.2,1.8c0.2,0.6,0.3,1.8,0.3,3.4v8.3C182.8,29.1,182.9,30.2,183.1,30.9z M177.4,22.2
			c-3.8,0.4-5.6,1.5-5.6,3.4c0,0.6,0.2,1.2,0.6,1.6c0.4,0.5,1,0.7,1.7,0.7c0.9,0,1.7-0.4,2.4-1.2s1-1.8,1-2.9V22.2z"/>
		<path class="st0" d="M193.3,16.9v7.7c0,1,0.1,1.6,0.4,1.9c0.3,0.3,1,0.5,2,0.5c0.5,0,1.1,0,1.7-0.1v4c-1.6,0.3-2.7,0.4-3.4,0.4
			c-2.2,0-3.8-0.4-4.8-1.3s-1.4-2.4-1.4-4.7v-8.5H185v-4.2h3.2l0.4-5.4l4.6-0.4v5.7h3.9v4.2H193.3z"/>
		<path class="st0" d="M216.3,22.7h-11.7c0,0.3,0,0.6,0,0.8c0,1.3,0.3,2.3,1,2.9c0.7,0.7,1.5,1,2.5,1c1.8,0,2.9-1,3.2-2.9l4.9,0.4
			c-1.4,4.2-4.1,6.3-8.3,6.3c-1.8,0-3.4-0.4-4.6-1.1c-1.3-0.7-2.3-1.8-3.1-3.2c-0.8-1.4-1.2-3.1-1.2-5c0-2.9,0.8-5.2,2.5-7
			c1.7-1.8,3.8-2.7,6.4-2.7c2.3,0,4.4,0.8,6,2.5S216.3,19.1,216.3,22.7z M204.6,19.6h6.5c-0.2-2.5-1.2-3.8-3.1-3.8
			C206,15.8,204.8,17.1,204.6,19.6z"/>
		<path class="st0" d="M249.1,15.4l-6,0.4c-0.1-3.5-1.4-5.2-4.1-5.2c-3,0-4.5,2.7-4.5,8c0,3.1,0.4,5.2,1.2,6.3
			c0.8,1.1,2,1.7,3.4,1.7c2.4,0,3.8-1.6,4.4-4.7l5.6,0.3c-0.4,2.9-1.5,5.2-3.3,6.7c-1.8,1.5-4.1,2.3-6.7,2.3c-3.3,0-5.9-1.1-7.9-3.4
			c-2-2.2-3.1-5.4-3.1-9.3c0-3.7,1-6.8,3-9.1c2-2.4,4.7-3.6,8.1-3.6C245,5.9,248.3,9.1,249.1,15.4z"/>
		<path class="st0" d="M259.7,12.3c2.8,0,4.9,0.9,6.5,2.7s2.3,4.1,2.3,6.8c0,2.7-0.8,4.9-2.4,6.7c-1.6,1.8-3.8,2.7-6.4,2.7
			c-2.6,0-4.7-0.9-6.2-2.7c-1.6-1.8-2.3-4.1-2.3-6.9c0-1.9,0.4-3.6,1.1-4.9c0.7-1.4,1.7-2.4,2.9-3.3
			C256.3,12.7,257.8,12.3,259.7,12.3z M259.8,15.8c-1,0-1.8,0.4-2.3,1.2c-0.5,0.8-0.8,2.4-0.8,4.7c0,2.2,0.2,3.7,0.7,4.6
			c0.5,0.9,1.3,1.4,2.3,1.4c0.9,0,1.6-0.4,2.2-1.2s0.8-2.3,0.8-4.6c0-2.4-0.2-4-0.7-4.9S260.8,15.8,259.8,15.8z"/>
		<path class="st0" d="M277.2,30.9h-5.6v-5.6h5.6V30.9z"/>
	</g>
	<g>
		<path class="st0" d="M296.8,22.1c-1.9-8.4,3.3-16.7,11.7-18.6s16.7,3.3,18.7,11.7c1.9,8.4-3.3,16.7-11.7,18.6
			c-0.8,0.2-1.6,0.3-2.5,0.4l0.9-2c0.4,0,0.7-0.1,1.1-0.2c7.1-1.6,11.5-8.5,9.9-15.4S316.3,5.4,309.2,7s-11.5,8.5-9.9,15.4
			c1.2,5.3,5.7,9,10.8,9.8l0.9,2C304.3,33.8,298.4,29,296.8,22.1L296.8,22.1L296.8,22.1z"/>
		<polygon class="st0" points="326.3,22.3 298.2,22.3 301,8.9 312.3,4.9 324.2,10.2 		"/>
	</g>
</g>
</svg>
