<?xml version="1.0" encoding="UTF-8"?>
<svg id="Layer_2" data-name="Layer 2" xmlns="http://www.w3.org/2000/svg" viewBox="0 0 339.58 37.18">
  <defs>
    <style>
      .cls-1 {
        fill: #fff;
      }
    </style>
  </defs>
  <g id="Artwork">
    <g>
      <path class="cls-1" d="m148.65,18.63c0-3.94,2.81-7.57,6.91-7.57s6.91,3,6.91,7.57c0,4.03-2.81,7.48-6.91,7.48s-6.91-3.21-6.91-7.48h0Zm-4.08,0c0,6.36,4.87,10.99,10.99,10.99s10.99-4.9,10.99-10.99c0-6.56-4.69-11.06-10.99-11.06s-10.99,4.92-10.99,11.06"/>
      <path class="cls-1" d="m120.53,18.57c0,6.42,4.57,10.94,10.99,10.94,3.57,0,6.49-1.42,8.46-4.12l.11-.16-3.02-2.52-.1.2c-1.16,2.1-2.98,3.19-5.45,3.19-4.2,0-6.91-3.28-6.91-7.53s3.02-7.5,6.91-7.5c2.33,0,4.42,1.3,5.42,3.05l.11.17,3.1-2.46-.14-.17c-2.09-2.57-5.18-4.04-8.49-4.04-5.95,0-10.99,4.56-10.99,10.94h0Z"/>
      <polygon class="cls-1" points="274.88 20.26 274.88 29.09 278.84 29.09 278.84 20.26 286.53 8.09 282.17 8.09 276.86 16.52 271.72 8.09 267.21 8.09 274.88 20.26 274.88 20.26"/>
      <path class="cls-1" d="m207.68,11.26h.98c3.23,0,4.63,1.23,4.63,3.45s-1.49,3.38-4.63,3.38c-.45-.01-.72-.03-.98-.07v-6.76h0Zm-3.96-3.17v21h3.96v-7.81c.27.04.64.06.98.06,5.08,0,8.7-2.25,8.7-6.62s-3.03-6.64-8.7-6.64h-4.93Z"/>
      <polygon class="cls-1" points="177.22 17.76 183.75 29.63 190.21 17.75 192.8 29.09 196.96 29.09 191.45 7.73 183.82 21.91 176.05 7.73 170.82 29.1 174.7 29.1 177.22 17.76 177.22 17.76"/>
      <polygon class="cls-1" points="69.73 20.56 55.82 7.73 55.82 29.1 59.67 29.1 59.67 16.77 73.56 29.6 73.56 8.09 69.73 8.09 69.73 20.56 69.73 20.56"/>
      <path class="cls-1" d="m42.73,8.09v21h3.99V8.09h-3.99Z"/>
      <path class="cls-1" d="m24.7,21.24l2.68-6.04,2.49,6.04h-5.17Zm12.9,7.85L27.38,7.72l-10.24,21.37h4.01l2.01-4.46h8.1l1.94,4.46h4.39Z"/>
      <path class="cls-1" d="m3.95,16.99v-5.72s.7,0,.7,0c2.92,0,4.35.79,4.35,2.89s-1.47,2.83-4.21,2.83h-.84Zm1.75,3.2c2.77,0,4.38.68,4.38,2.91,0,1.95-1.48,2.8-4.39,2.82h-1.74v-5.73h1.75Zm4.41-2.29c1.64-.73,2.86-2.35,2.86-4.35,0-3.64-2.89-5.46-7.94-5.46H0v21h5.95c5.38,0,8.22-2.17,8.22-6.04,0-2.57-1.61-4.34-4.05-5.15"/>
      <path class="cls-1" d="m99.62,24.8c-.59.8-1.89,1.61-3.28,1.61-1.95,0-3.18-1.21-3.18-2.95,0-1.48,1.1-2.82,2.24-3.42.03-.01.07-.03.09-.05l4.12,4.81h0Zm-4.71-11.96c0-1.47,1.05-2.37,2.42-2.37s2.3.88,2.3,2.18c0,1.45-1.45,2.58-2.9,3.33-.74-.72-1.82-1.9-1.82-3.13h0Zm8.59,16.28h4.63s-3.55-4.02-4.09-4.7c.5-.6,3.51-5.27,3.51-5.27h-3.72s-1.86,2.8-1.86,2.8l-3.33-3.75c2.77-1.45,4.51-3.51,4.51-5.72,0-2.96-2.57-4.88-5.79-4.88-3.64,0-6.07,2.15-6.07,5.17,0,2.15,1.34,3.88,2.27,4.93-2.21,1.21-4.18,3.01-4.18,6.09,0,3.28,2.67,5.83,6.53,5.83,2.32,0,4.28-.81,5.87-2.5l1.73,2h0Z"/>
      <polygon class="cls-1" points="258.66 20.56 244.76 7.72 244.76 29.09 248.6 29.09 248.6 16.77 262.5 29.59 262.5 8.09 258.66 8.09 258.66 20.56 258.66 20.56"/>
      <path class="cls-1" d="m226.75,21.24l2.68-6.05,2.49,6.05h-5.16Zm12.9,7.85l-10.22-21.37-10.24,21.37h4.02l2.01-4.46h8.09l1.94,4.46h4.39Z"/>
      <path class="cls-1" d="m339.58,18.59c0,10.27-8.34,18.59-18.62,18.59s-18.62-8.32-18.62-18.59S310.67,0,320.96,0c1.01,0,2,.08,2.97.24l-1.59,2.06c-.44-.04-.89-.06-1.34-.06-8.67,0-15.68,6.85-15.68,15.3s7.02,15.3,15.68,15.3,15.68-6.85,15.68-15.3c0-6.5-4.16-12.05-10.02-14.27l-.57-2.54c7.79,2.23,13.49,9.38,13.49,17.87h0Zm-12.06.89l-3.37-15.13-9.41,12.18,12.78,2.95h0Z"/>
    </g>
  </g>
</svg>